<?xml version="1.0" encoding="UTF-8"?>
<svg xmlns="http://www.w3.org/2000/svg" version="1.1" id="Layer_1" x="0px" y="0px" width="183.2" viewBox="0 0 1200 785" height="120">
  <defs></defs>
  <path fill="#123E6D" opacity="1.000000" stroke="none" d="M 131.402 415.975 C 84.128 379.203 53.273 332.66 46.285 272.803 C 36.35 187.687 67.853 120.148 136.979 70.324 C 175.639 42.458 219.556 32.084 266.887 35.454 C 322.091 39.384 368.977 61.299 407.512 100.908 C 422.415 116.226 433.598 134.147 442.117 153.729 C 442.568 154.767 442.89 155.861 443.487 157.53 C 441.494 157.662 439.942 157.854 438.391 157.855 C 413.225 157.874 388.058 157.797 362.893 157.952 C 359.512 157.972 357.469 156.732 355.296 154.342 C 325.189 121.237 287.561 104.854 243.039 108.066 C 189.175 111.951 151.82 141.858 131.057 190.135 C 99.226 264.15 132.776 338.662 198.912 371.023 C 243.039 392.614 287.036 387.162 327.745 359.602 C 336.503 353.673 343.956 345.829 352.133 339.015 C 353.652 337.749 355.755 336.428 357.596 336.417 C 384.761 336.255 411.927 336.31 439.093 336.326 C 439.58 336.326 440.067 336.475 441.316 336.679 C 440.496 338.756 439.834 340.688 438.99 342.536 C 420.747 382.479 390.839 411.101 352.538 431.576 C 322.768 447.49 290.937 455.808 257.263 456.246 C 211.055 456.847 168.847 444.265 131.402 415.975 Z"></path>
  <path fill="#123E6D" opacity="1.000000" stroke="none" d="M 884.244 390.115 C 870.959 369.36 866.063 346.318 865.287 322.713 C 864.013 283.925 864.278 245.085 864.019 206.267 C 864.01 204.899 864.97 202.999 866.087 202.228 C 891.803 184.474 915.554 164.405 937.473 142.148 C 937.657 141.961 938.039 141.969 938.98 141.701 C 938.98 143.599 938.98 145.342 938.98 147.086 C 938.98 196.412 938.938 245.738 939.017 295.063 C 939.032 304.556 938.91 314.112 939.907 323.528 C 942.584 348.821 954.178 368.613 978.198 378.955 C 995.62 386.456 1013.436 384.891 1030.513 377.012 C 1042.516 371.475 1047.878 360.044 1053.758 349.17 C 1059.119 339.253 1061.188 328.554 1061.613 317.463 C 1061.912 309.639 1062.063 301.804 1062.066 293.974 C 1062.098 212.32 1062.086 130.666 1062.086 49.012 C 1062.086 47.043 1062.086 45.073 1062.086 42.769 C 1087.062 42.769 1111.635 42.769 1136.929 42.769 C 1136.929 44.415 1136.929 46.171 1136.929 47.927 C 1136.929 130.247 1136.908 212.568 1136.943 294.888 C 1136.952 315.092 1136 335.221 1131.565 354.991 C 1124.588 386.094 1106.43 409.753 1081.19 428.245 C 1058.396 444.947 1032.959 455.128 1004.453 456.16 C 978.415 457.103 954.468 449.662 932.268 436.404 C 912.808 424.782 896.663 409.618 884.244 390.115 Z"></path>
  <path fill="#10BADE" opacity="1.000000" stroke="none" d="M 566.923 126.589 C 566.923 170.018 566.923 212.947 566.923 256.874 C 541.866 259.139 517.271 261.362 492.235 263.626 C 492.235 192.387 492.235 122.356 492.235 51.989 C 516.912 51.989 541.48 51.989 566.923 51.989 C 566.923 76.645 566.923 101.367 566.923 126.589 Z"></path>
  <path fill="#F6972B" opacity="1.000000" stroke="none" d="M 566.095 266.939 C 636.427 257.576 703.822 239.617 767.943 209.808 C 833.179 179.48 891.254 138.6 944.892 91.075 C 956.237 81.023 967.211 70.552 978.366 60.286 C 979.525 59.219 980.757 58.231 981.955 57.207 C 982.363 57.488 982.771 57.77 983.179 58.051 C 982.271 60.021 981.549 62.103 980.428 63.943 C 946.592 119.481 903.502 166.326 849.647 203.054 C 802.963 234.893 752.283 257.823 697.461 271.62 C 669.806 278.581 641.802 283.192 613.391 285.774 C 583.929 288.451 554.421 289.057 525.055 286.271 C 500.922 283.981 477.006 279.413 452.995 275.846 C 452.237 275.733 451.495 275.519 450.781 274.996 C 489.257 274.426 527.544 271.979 566.095 266.939 Z"></path>
  <path fill="#10BBDE" opacity="1.000000" stroke="none" d="M 725.319 275.194 C 745.736 267.97 765.782 260.906 786.057 253.762 C 786.057 320.64 786.057 388.076 786.057 455.935 C 761.385 455.935 736.714 455.935 711.474 455.935 C 711.474 453.826 711.474 451.873 711.474 449.919 C 711.474 395.137 711.557 340.354 711.338 285.573 C 711.317 280.447 712.622 277.905 717.719 277.259 C 720.17 276.949 722.541 276.009 725.319 275.194 Z"></path>
  <path fill="#10BBDE" opacity="1.000000" stroke="none" d="M 566.924 311.597 C 566.924 359.898 566.924 407.701 566.924 455.929 C 541.909 455.929 517.221 455.929 492.231 455.929 C 492.231 401.789 492.231 347.757 492.231 293.882 C 517.073 295.51 541.595 297.116 566.924 298.775 C 566.924 302.594 566.924 306.847 566.924 311.597 Z"></path>
  <path fill="#10BADE" opacity="1.000000" stroke="none" d="M 756.794 51.654 C 766.778 51.654 776.262 51.654 786.277 51.654 C 786.36 53.518 786.492 55.123 786.493 56.728 C 786.504 98.535 786.454 140.343 786.586 182.15 C 786.598 185.853 785.48 187.863 782.096 189.37 C 760.071 199.178 738.122 209.157 716.138 219.058 C 714.947 219.594 713.665 219.93 711.909 220.538 C 711.909 164.154 711.909 108.195 711.909 51.654 C 726.744 51.654 741.519 51.654 756.794 51.654 Z"></path>
  <path fill="#133F6D" opacity="1.000000" stroke="none" d="M 863.952 92.589 C 863.952 75.803 863.952 59.517 863.952 42.83 C 888.943 42.83 913.617 42.83 938.984 42.83 C 938.984 51.686 938.422 60.648 939.15 69.503 C 939.816 77.603 937.142 83.02 930.784 88.053 C 909.669 104.771 888.977 122.023 868.108 139.052 C 867.099 139.876 865.954 140.534 863.952 141.895 C 863.952 125.102 863.952 109.095 863.952 92.589 Z"></path>
</svg>
